<?xml version="1.0" encoding="ISO-8859-1"?>
<svg xmlns="http://www.w3.org/2000/svg" xmlns:xlink="http://www.w3.org/1999/xlink" xmlns:ev="http://www.w3.org/2001/xml-events" version="1.1" baseProfile="full" width="93px" height="253px" viewBox="0 0 93 253">
  <polyline fill="none" stroke="#0000FF" stroke-width="1px" points="31.5,161.5 21.5,201.5 41.5,241.5 " />
  <polyline fill="none" points="35.4443,225.118 36.5,231.5 32.0279,226.826" stroke="#0000FF" stroke-width="1px"  />
  <polyline fill="none" stroke="#0000FF" stroke-width="1px" points="31.5,161.5 41.5,201.5 41.5,241.5 " />
  <polyline fill="none" points="43.4098,225.32 41.5,231.5 39.5902,225.32" stroke="#0000FF" stroke-width="1px"  />
  <polyline fill="none" stroke="#0000FF" stroke-width="1px" points="28.1667,111.5 1.5,161.5 1.5,201.5 41.5,241.5 " />
  <polyline fill="none" points="28.4803,225.779 31.5,231.5 25.7794,228.48" stroke="#0000FF" stroke-width="1px"  />
  <line stroke="#0000FF" stroke-width="1px" x1="28.1667" y1="111.5" x2="31.5" y2="161.5" />
  <polyline fill="none" points="32.3278,145.206 30.8333,151.5 28.5166,145.46" stroke="#0000FF" stroke-width="1px"  />
  <polyline fill="none" stroke="#0000FF" stroke-width="1px" points="51.5,61.5 61.5,111.5 61.5,201.5 41.5,241.5 " />
  <polyline fill="none" points="50.9721,226.826 46.5,231.5 47.5557,225.118" stroke="#0000FF" stroke-width="1px"  />
  <line stroke="#0000FF" stroke-width="1px" x1="51.5" y1="61.5" x2="28.1667" y2="111.5" />
  <polyline fill="none" points="37.1776,96.7071 32.8333,101.5 33.7163,95.0918" stroke="#0000FF" stroke-width="1px"  />
  <polyline fill="none" stroke="#0000FF" stroke-width="1px" points="81.5,11.5 81.5,201.5 41.5,241.5 " />
  <polyline fill="none" points="57.2206,228.48 51.5,231.5 54.5197,225.779" stroke="#0000FF" stroke-width="1px"  />
  <line stroke="#0000FF" stroke-width="1px" x1="81.5" y1="11.5" x2="51.5" y2="61.5" />
  <polyline fill="none" points="62.3174,47.183 57.5,51.5 59.0421,45.2178" stroke="#0000FF" stroke-width="1px"  />
  <ellipse cx="41.5" cy="241.5" rx="10" ry="10" fill="#FFFF00" stroke="#000000" stroke-width="1px" />
  <text x="41.5" y="241.5" text-anchor="middle" dominant-baseline="middle" font-family="Arial" font-size="10" fill="#000000">a</text>
  <ellipse cx="31.5" cy="161.5" rx="10" ry="10" fill="#FFFF00" stroke="#000000" stroke-width="1px" />
  <text x="31.5" y="161.5" text-anchor="middle" dominant-baseline="middle" font-family="Arial" font-size="10" fill="#000000">+</text>
  <ellipse cx="28.1667" cy="111.5" rx="10" ry="10" fill="#FFFF00" stroke="#000000" stroke-width="1px" />
  <text x="28.1667" y="111.5" text-anchor="middle" dominant-baseline="middle" font-family="Arial" font-size="10" fill="#000000">+</text>
  <ellipse cx="51.5" cy="61.5" rx="10" ry="10" fill="#FFFF00" stroke="#000000" stroke-width="1px" />
  <text x="51.5" y="61.5" text-anchor="middle" dominant-baseline="middle" font-family="Arial" font-size="10" fill="#000000">+</text>
  <ellipse cx="81.5" cy="11.5" rx="10" ry="10" fill="#FFFF00" stroke="#000000" stroke-width="1px" />
  <text x="81.5" y="11.5" text-anchor="middle" dominant-baseline="middle" font-family="Arial" font-size="10" fill="#000000">+</text>
</svg>
