<?xml version="1.0" encoding="ISO-8859-1"?>
<svg xmlns="http://www.w3.org/2000/svg" xmlns:xlink="http://www.w3.org/1999/xlink" xmlns:ev="http://www.w3.org/2001/xml-events" version="1.1" baseProfile="full" width="103px" height="223px" viewBox="0 0 103 223">
  <line stroke="#0000FF" stroke-width="1px" x1="51.5" y1="161.5" x2="51.5" y2="211.5" />
  <polyline fill="none" points="53.4098,195.32 51.5,201.5 49.5902,195.32" stroke="#0000FF" stroke-width="1px"  />
  <line stroke="#0000FF" stroke-width="1px" x1="51.5" y1="161.5" x2="91.5" y2="211.5" />
  <polyline fill="none" points="81.1305,195.481 83.5,201.5 78.1478,197.867" stroke="#0000FF" stroke-width="1px"  />
  <line stroke="#0000FF" stroke-width="1px" x1="11.5" y1="111.5" x2="51.5" y2="161.5" />
  <polyline fill="none" points="41.1305,145.481 43.5,151.5 38.1478,147.867" stroke="#0000FF" stroke-width="1px"  />
  <line stroke="#0000FF" stroke-width="1px" x1="11.5" y1="111.5" x2="11.5" y2="161.5" />
  <polyline fill="none" points="13.4098,145.32 11.5,151.5 9.59017,145.32" stroke="#0000FF" stroke-width="1px"  />
  <line stroke="#0000FF" stroke-width="1px" x1="51.5" y1="61.5" x2="11.5" y2="111.5" />
  <polyline fill="none" points="24.8522,97.867 19.5,101.5 21.8695,95.4809" stroke="#0000FF" stroke-width="1px"  />
  <line stroke="#0000FF" stroke-width="1px" x1="51.5" y1="61.5" x2="51.5" y2="111.5" />
  <polyline fill="none" points="53.4098,95.3197 51.5,101.5 49.5902,95.3197" stroke="#0000FF" stroke-width="1px"  />
  <line stroke="#0000FF" stroke-width="1px" x1="31.5" y1="11.5" x2="51.5" y2="61.5" />
  <polyline fill="none" points="46.9779,45.0524 47.5,51.5 43.4314,46.471" stroke="#0000FF" stroke-width="1px"  />
  <line stroke="#0000FF" stroke-width="1px" x1="31.5" y1="11.5" x2="11.5" y2="61.5" />
  <polyline fill="none" points="19.5686,46.471 15.5,51.5 16.0221,45.0524" stroke="#0000FF" stroke-width="1px"  />
  <ellipse cx="51.5" cy="211.5" rx="10" ry="10" fill="#FFFF00" stroke="#000000" stroke-width="1px" />
  <text x="51.5" y="211.5" text-anchor="middle" dominant-baseline="middle" font-family="Arial" font-size="10" fill="#000000">a</text>
  <ellipse cx="91.5" cy="211.5" rx="10" ry="10" fill="#FFFF00" stroke="#000000" stroke-width="1px" />
  <text x="91.5" y="211.5" text-anchor="middle" dominant-baseline="middle" font-family="Arial" font-size="10" fill="#000000">a</text>
  <ellipse cx="51.5" cy="161.5" rx="10" ry="10" fill="#FFFF00" stroke="#000000" stroke-width="1px" />
  <text x="51.5" y="161.5" text-anchor="middle" dominant-baseline="middle" font-family="Arial" font-size="10" fill="#000000">+</text>
  <ellipse cx="11.5" cy="161.5" rx="10" ry="10" fill="#FFFF00" stroke="#000000" stroke-width="1px" />
  <text x="11.5" y="161.5" text-anchor="middle" dominant-baseline="middle" font-family="Arial" font-size="10" fill="#000000">a</text>
  <ellipse cx="11.5" cy="111.5" rx="10" ry="10" fill="#FFFF00" stroke="#000000" stroke-width="1px" />
  <text x="11.5" y="111.5" text-anchor="middle" dominant-baseline="middle" font-family="Arial" font-size="10" fill="#000000">+</text>
  <ellipse cx="51.5" cy="111.5" rx="10" ry="10" fill="#FFFF00" stroke="#000000" stroke-width="1px" />
  <text x="51.5" y="111.5" text-anchor="middle" dominant-baseline="middle" font-family="Arial" font-size="10" fill="#000000">a</text>
  <ellipse cx="51.5" cy="61.5" rx="10" ry="10" fill="#FFFF00" stroke="#000000" stroke-width="1px" />
  <text x="51.5" y="61.5" text-anchor="middle" dominant-baseline="middle" font-family="Arial" font-size="10" fill="#000000">+</text>
  <ellipse cx="11.5" cy="61.5" rx="10" ry="10" fill="#FFFF00" stroke="#000000" stroke-width="1px" />
  <text x="11.5" y="61.5" text-anchor="middle" dominant-baseline="middle" font-family="Arial" font-size="10" fill="#000000">a</text>
  <ellipse cx="31.5" cy="11.5" rx="10" ry="10" fill="#FFFF00" stroke="#000000" stroke-width="1px" />
  <text x="31.5" y="11.5" text-anchor="middle" dominant-baseline="middle" font-family="Arial" font-size="10" fill="#000000">+</text>
</svg>
